<?xml version="1.0" encoding="UTF-8"?>
<svg width="24px" height="24px" viewBox="0 0 24 24" version="1.1" xmlns="http://www.w3.org/2000/svg" xmlns:xlink="http://www.w3.org/1999/xlink">
    <title>DEA3DE50-55C3-4769-ABFF-9EF08C3688AA@2x</title>
    <g id="Desktop-(For-Dev)" stroke="none" stroke-width="1" fill="none" fill-rule="evenodd">
        <g id="DEV-|-LAPDOnline-|-Homepage-|-Events-Tab" transform="translate(-965.000000, -1972.000000)">
            <rect fill="#FFFFFF" x="0" y="0" width="1440" height="3334"></rect>
            <g id="3-Boxes" transform="translate(135.000000, 1934.000000)">
                <g id="Contact-Box" transform="translate(800.000000, 0.000000)">
                    <rect id="BlueBG" fill="#052942" transform="translate(185.000000, 153.000000) scale(-1, 1) translate(-185.000000, -153.000000) " x="0" y="0" width="370" height="306"></rect>
                    <g id="Emergencies" transform="translate(30.000000, 38.000000)" fill="#7DDFFF">
                        <g id="Group-3" transform="translate(2.000000, 1.000000)">
                            <path d="M6.39037365,9.94083996 C6.39037365,7.98305397 7.98305397,6.39037365 9.94083996,6.39037365 L9.94083996,7.81074645 C8.76666511,7.81074645 7.81043599,8.76666511 7.81043599,9.94083996 L6.39037365,9.94083996 Z M2.82158997,6.64992156 L0.976812883,5.58503004 L1.68653359,4.35528213 L3.53131068,5.42017365 L2.82158997,6.64992156 Z M5.42017365,3.53131068 L4.35497167,1.68653359 L5.58471957,0.976812883 L6.64992156,2.82158997 L5.42017365,3.53131068 Z M9.23080879,2.13018664 L10.6514921,2.13018664 L10.6505607,9.31391987e-05 L9.23018786,9.31391987e-05 L9.23018786,2.13018664 L9.23080879,2.13018664 Z M14.4615063,3.53131068 L13.2317584,2.82158997 L14.2969603,0.976812883 L15.5267082,1.68653359 L14.4615063,3.53131068 Z M17.0600899,6.64992156 L16.3503692,5.42017365 L18.1948359,4.35528213 L18.904867,5.58503004 L17.0600899,6.64992156 Z M17.7514933,10.6505607 L19.8815868,10.6505607 L19.8815868,9.23018786 L17.7514933,9.23018786 L17.7514933,10.6505607 Z M9.31391987e-05,10.6505607 L2.12987618,10.6505607 L2.12987618,9.23018786 L9.31391987e-05,9.23018786 L9.31391987e-05,10.6505607 Z M4.97000085,14.9107477 L3.55055944,14.9107477 L3.55055944,9.94083996 C3.55055944,6.41707356 6.41707356,3.55055944 9.94083996,3.55055944 C13.4646064,3.55055944 16.3311205,6.41707356 16.3311205,9.94083996 L16.3311205,14.9107477 L14.9107477,14.9107477 L14.9107477,9.94083996 C14.9107477,7.20099516 12.6806848,4.97093224 9.94083996,4.97093224 C7.20068469,4.97093224 4.97093224,7.20099516 4.97093224,9.94083996 L4.97093224,14.9107477 L4.97000085,14.9107477 Z M17.0408412,19.8806554 L2.84052828,19.8806554 L2.84052828,19.1709347 C2.84052828,18.3879445 3.47728994,17.7505619 4.26121154,17.7505619 L15.6210893,17.7505619 C16.40439,17.7505619 17.0417726,18.3873235 17.0417726,19.1709347 L17.0417726,19.8806554 L17.0408412,19.8806554 Z M15.6204684,16.3304995 L10.6505607,16.3304995 L10.6505607,12.7800332 L12.0709335,12.7800332 L12.0709335,11.35935 L7.81074645,11.35935 L7.81074645,12.7800332 L9.23080879,12.7800332 L9.23080879,16.3304995 L4.26028015,16.3311205 C2.69429973,16.3311205 1.42015548,17.6049543 1.42015548,19.1709347 L1.42015548,21.3010282 L18.461214,21.3010282 L18.461214,19.1709347 C18.461214,17.6049543 17.1870697,16.3311205 15.6210893,16.3311205 L15.6204684,16.3304995 Z" id="Fill-1"></path>
                        </g>
                    </g>
                </g>
            </g>
        </g>
    </g>
</svg>