<?xml version="1.0" encoding="UTF-8"?>
<svg width="28px" height="37px" viewBox="0 0 28 37" version="1.1" xmlns="http://www.w3.org/2000/svg" xmlns:xlink="http://www.w3.org/1999/xlink">
    <title>256A7BE2-3722-405F-8A4F-15756FFED74A</title>
    <g id="Desktop-(For-Dev)" stroke="none" stroke-width="1" fill="none" fill-rule="evenodd">
        <g id="v4-|-LAPDOnline-|-Crime-Info" transform="translate(-141.000000, -272.000000)" fill="#E73F15">
            <g id="icon-file-orange" transform="translate(135.000000, 270.000000)">
                <path d="M19.0840294,2.02294049 C20.6878315,1.92755307 22.3844083,2.13120919 23.9419692,2.60447441 C28.5951542,4.02016873 32.2098,7.84050782 33.3641111,12.564455 C33.6376734,13.6797475 33.7561769,14.6522911 33.7561769,15.7951535 C33.7575166,16.8442825 33.6647702,17.6240009 33.4085687,18.7261455 C32.46368,22.7618185 29.4746894,28.0414023 24.9075762,33.8199166 L24.9075762,33.8199166 L24.1532038,34.7612287 L23.7657808,35.2349441 L23.3973019,35.6789252 L22.7678327,36.4246109 L21.9941093,37.3230982 L21.7251302,37.6293917 L21.2690921,38.1355341 L21.0076742,38.4109673 L20.8760341,38.5397283 L20.781151,38.621331 C20.3926922,38.9170739 19.8975387,38.9925609 19.4400707,38.8548718 C19.1443555,38.7688455 18.9951808,38.6554727 18.7482935,38.4007833 L18.7482935,38.4007833 L18.6787551,38.3296752 L18.4992221,38.1381001 L18.1458438,37.7469791 L17.4084987,36.905706 L16.6088993,35.9695132 L15.8598646,35.0675844 C14.8179327,33.7939287 13.7388709,32.3982018 12.8480635,31.1703317 C8.92537424,25.7553317 6.62547834,21.1021726 6.11254664,17.4562394 C5.74700637,14.8436056 6.28257523,11.9027743 7.56362447,9.46715955 C9.85719117,5.11261321 14.1971308,2.30717431 19.0840294,2.02294049 Z M23.3601745,4.5179829 C22.0285288,4.11336216 20.5689653,3.93815698 19.2027712,4.01941248 L19.2027712,4.01941248 L18.8642251,4.04387547 C14.8147685,4.39375875 11.2476347,6.7644185 9.33344629,10.39868 C8.24525533,12.4676203 7.78650162,14.9866564 8.09314852,17.1783624 C8.55155596,20.4367338 10.7193647,24.8226536 14.4673221,29.9964489 C15.4585095,31.3626801 16.6950985,32.9500802 17.8403079,34.3252157 L17.8403079,34.3252157 L18.0336658,34.5563635 L18.7499754,35.3985939 L19.424362,36.1740058 L19.8840003,36.6888765 L20.4463145,36.0529274 L21.1171384,35.2777825 L21.8630349,34.3959574 L22.5960209,33.5061284 L23.3242475,32.5976657 C27.7318618,27.0231524 30.593737,21.9753278 31.4608703,18.2717572 C31.6826851,17.3175353 31.7572799,16.6904165 31.756038,15.7966765 C31.756038,14.8133297 31.6571204,14.0007321 31.4214808,13.0400459 C30.4346699,9.00158446 27.3373459,5.72800555 23.3601745,4.5179829 Z M20.0552503,10.9661265 C22.713535,10.9661265 24.8682503,13.1208417 24.8682503,15.7791265 C24.8682503,18.4374112 22.713535,20.5921265 20.0552503,20.5921265 C17.3969655,20.5921265 15.2422503,18.4374112 15.2422503,15.7791265 C15.2422503,13.1208417 17.3969655,10.9661265 20.0552503,10.9661265 Z M20.0552503,12.9661265 C18.501535,12.9661265 17.2422503,14.2254112 17.2422503,15.7791265 C17.2422503,17.3328417 18.501535,18.5921265 20.0552503,18.5921265 C21.6089655,18.5921265 22.8682503,17.3328417 22.8682503,15.7791265 C22.8682503,14.2254112 21.6089655,12.9661265 20.0552503,12.9661265 Z" id="icon-crimemapping"></path>
            </g>
        </g>
    </g>
</svg>