<?xml version="1.0" encoding="UTF-8"?>
<svg width="32px" height="33px" viewBox="0 0 32 33" version="1.1" xmlns="http://www.w3.org/2000/svg" xmlns:xlink="http://www.w3.org/1999/xlink">
    <title>96EF5FD9-97EC-4812-95D6-DCE438A26683</title>
    <g id="Desktop-(For-Dev)" stroke="none" stroke-width="1" fill="none" fill-rule="evenodd">
        <g id="v4-|-LAPDOnline-|-Crime-Info" transform="translate(-139.000000, -345.000000)" fill="#E73F15" fill-rule="nonzero">
            <g id="Big-Links" transform="translate(135.000000, 270.000000)">
                <g id="File-Traffic-Orange" transform="translate(0.000000, 72.000000)">
                    <path d="M34.6029133,34.0006132 C35.155198,34.0006132 35.6029133,34.4483285 35.6029133,35.0006132 C35.6029133,35.5134491 35.2168731,35.9361204 34.7195344,35.9938855 L34.6029133,36.0006132 L31.6029133,36.0006132 C31.0506285,36.0006132 30.6029133,35.552898 30.6029133,35.0006132 C30.6029133,34.4877774 30.9889535,34.0651061 31.4862921,34.007341 L31.6029133,34.0006132 L34.6029133,34.0006132 Z M27.6029133,34.0006132 C28.155198,34.0006132 28.6029133,34.4483285 28.6029133,35.0006132 C28.6029133,35.5134491 28.2168731,35.9361204 27.7195344,35.9938855 L27.6029133,36.0006132 L24.6029133,36.0006132 C24.0506285,36.0006132 23.6029133,35.552898 23.6029133,35.0006132 C23.6029133,34.4877774 23.9889535,34.0651061 24.4862921,34.007341 L24.6029133,34.0006132 L27.6029133,34.0006132 Z M20.6029133,34.0006132 C21.155198,34.0006132 21.6029133,34.4483285 21.6029133,35.0006132 C21.6029133,35.5134491 21.2168731,35.9361204 20.7195344,35.9938855 L20.6029133,36.0006132 L17.6029133,36.0006132 C17.0506285,36.0006132 16.6029133,35.552898 16.6029133,35.0006132 C16.6029133,34.4877774 16.9889535,34.0651061 17.4862921,34.007341 L17.6029133,34.0006132 L20.6029133,34.0006132 Z M13.6029133,34.0006132 C14.155198,34.0006132 14.6029133,34.4483285 14.6029133,35.0006132 C14.6029133,35.5134491 14.2168731,35.9361204 13.7195344,35.9938855 L13.6029133,36.0006132 L10.6029133,36.0006132 C10.0506285,36.0006132 9.60291326,35.552898 9.60291326,35.0006132 C9.60291326,34.4877774 9.98895345,34.0651061 10.4862921,34.007341 L10.6029133,34.0006132 L13.6029133,34.0006132 Z M4,36 L4,33 L4.12791441,33.0001216 C4.29195555,32.6978475 4.6076919,32.4883356 4.97623916,32.4768383 C5.36718072,32.4646424 5.7127021,32.6785273 5.88717463,33.0004654 L6,33 L6.00231986,33.3750747 C6.00465079,33.3982065 6.00619803,33.4215806 6.00693396,33.445171 C6.0119089,33.6046436 6.01955648,33.7637186 6.02986256,33.9223521 L6.03541068,34 L6.60291326,34.0006132 C7.15519801,34.0006132 7.60291326,34.4483285 7.60291326,35.0006132 C7.60291326,35.5134491 7.21687307,35.9361204 6.71953439,35.9938855 L6.60291326,36.0006132 L4,36 Z M35.2325754,28.0910279 C35.5590627,29.1048493 35.7838216,30.1522577 35.9021359,31.2210944 C35.9628997,31.7700263 35.5671612,32.2642822 35.0182293,32.3250459 C34.4692974,32.3858097 33.9750415,31.9900712 33.9142778,31.4411393 C33.8107769,30.506126 33.6142693,29.590373 33.3288556,28.7040947 C33.1595619,28.178397 33.4484844,27.6149951 33.9741821,27.4457014 C34.4998798,27.2764077 35.0632816,27.5653302 35.2325754,28.0910279 Z M6.82133652,25.7604756 C7.32185339,25.9939307 7.53834969,26.5889326 7.30489453,27.0894495 C6.91028028,27.9354839 6.60119818,28.8201537 6.38316325,29.7323054 C6.25476579,30.2694577 5.71523115,30.6008189 5.1780789,30.4724214 C4.64092665,30.344024 4.30956542,29.8044893 4.43796288,29.2673371 C4.68739331,28.223842 5.04099708,27.2117401 5.49236261,26.2440336 C5.72581776,25.7435167 6.32081965,25.5270204 6.82133652,25.7604756 Z M31.3444866,21.7171531 C32.098214,22.474974 32.7749302,23.306345 33.3635651,24.198385 C33.6677467,24.6593535 33.5406459,25.2796303 33.0796773,25.5838119 C32.6187088,25.8879935 31.9984321,25.7608926 31.6942504,25.2999241 C31.1789736,24.5190538 30.5864553,23.791123 29.9264483,23.1275315 C29.5369831,22.7359511 29.5386978,22.1027884 29.9302782,21.7133232 C30.3218587,21.3238579 30.9550214,21.3255726 31.3444866,21.7171531 Z M11.5269549,20.5803751 C11.8681552,21.014657 11.7926978,21.6433096 11.3584159,21.98451 C10.622594,22.56262 9.945769,23.213118 9.33881746,23.9254513 C8.98062836,24.3458309 8.34947372,24.3962463 7.92909411,24.0380572 C7.50871451,23.6798681 7.45829915,23.0487135 7.81648825,22.6283338 C8.50960697,21.8148726 9.28248045,21.0720621 10.12282,20.4118362 C10.5571019,20.0706358 11.1857545,20.1460933 11.5269549,20.5803751 Z M24.9909772,17.7940792 C26.0088123,18.1279692 26.9884407,18.5633897 27.9165493,19.0927741 C28.3962811,19.3664086 28.563356,19.9771326 28.2897215,20.4568644 C28.0160871,20.9365963 27.405363,21.1036712 26.9256312,20.8300367 C26.2491931,20.4442028 25.5416382,20.1155165 24.8096527,19.8477567 L24.509,19.743 L24.4362564,19.8113301 C24.3850949,19.8542083 24.328853,19.8925752 24.2678061,19.9255098 C23.2727319,20.4623497 22.1828912,20.8079306 21.0467364,20.9396867 C20.4981282,21.003307 20.001819,20.6101467 19.9381987,20.0615385 C19.8745784,19.5129304 20.2677387,19.0166212 20.8163469,18.9530009 C21.6992284,18.850616 22.5451675,18.5823746 23.3181934,18.1653292 C23.5198161,18.0565543 23.7421811,18.0241222 23.9521041,18.0581067 L23.9627527,18.0463792 C24.2207988,17.7818329 24.616141,17.6711181 24.9909772,17.7940792 Z M15.1898037,17.0854971 C15.3737945,17.2595965 15.5667328,17.4233768 15.7676911,17.5761735 C16.2199739,17.5085589 16.6620372,17.75948 16.8359656,18.182671 L16.8610168,18.258684 C17.0370034,18.3471466 17.216908,18.4282366 17.4002904,18.5016387 C17.9130266,18.7068705 18.1623081,19.2888985 17.9570763,19.8016346 C17.7518445,20.3143708 17.1698165,20.5636523 16.6570804,20.3584205 C16.2359281,20.1898468 15.8291978,19.989869 15.4400701,19.7607987 C15.145569,19.8604883 14.8542773,19.9718901 14.5670605,20.092945 C14.0581324,20.3074459 13.4716774,20.0687655 13.2571765,19.5598374 C13.0643152,19.1022518 13.2378104,18.5819926 13.6446957,18.3257674 C13.4193886,17.9520806 13.4604453,17.4581665 13.7761293,17.1245469 C14.1557214,16.7233882 14.788645,16.705905 15.1898037,17.0854971 Z M28.0455628,12.5240438 C28.5880873,12.6274149 28.9440916,13.1510167 28.8407205,13.6935412 C28.6271457,14.8144503 28.2027482,15.8772095 27.593954,16.8321814 C27.2970693,17.297883 26.6788711,17.4347362 26.2131695,17.1378516 C25.7474679,16.840967 25.6106147,16.2227687 25.9074993,15.7570671 C26.3807007,15.0147901 26.7102164,14.1896299 26.8760654,13.3192015 C26.9794364,12.776677 27.5030383,12.4206727 28.0455628,12.5240438 Z M12.0840704,10.4641473 C12.6351413,10.5007432 13.0522058,10.9771413 13.0156098,11.5282123 C13.0052199,11.6846675 13,11.8419816 13,12 C13,12.7016871 13.1029439,13.3884105 13.3031699,14.0450318 C13.4642573,14.5733019 13.166597,15.1321366 12.6383269,15.293224 C12.1100568,15.4543114 11.5512221,15.156651 11.3901347,14.6283809 C11.132409,13.7831952 11,12.8999145 11,12 C11,11.7977611 11.0066864,11.5962476 11.0200054,11.3956868 C11.0566013,10.8446158 11.5329994,10.4275514 12.0840704,10.4641473 Z M26.9479482,6.27897966 C27.6691017,7.1538962 28.2202983,8.15775738 28.5687054,9.24027363 C28.7379101,9.76600001 28.4488922,10.3293529 27.9231658,10.4985576 C27.3974394,10.6677623 26.8340865,10.3787444 26.6648818,9.85301798 C26.3942768,9.01223639 25.9657945,8.23186729 25.4046367,7.55106048 C25.0533613,7.12488677 25.1140784,6.49463973 25.5402521,6.14336432 C25.9664258,5.7920889 26.5966728,5.85280596 26.9479482,6.27897966 Z M16.1755901,4.90087552 C16.4961812,5.35058633 16.391509,5.97503938 15.9417982,6.29563045 C15.2230212,6.80803416 14.605622,7.45252172 14.1248662,8.19263822 C13.8240182,8.65578931 13.2046746,8.78736196 12.7415235,8.48651397 C12.2783724,8.18566598 12.1467997,7.56632235 12.4476477,7.10317126 C13.0651953,6.15246583 13.8577583,5.32512911 14.7808352,4.66708354 C15.230546,4.34649247 15.8549991,4.45116471 16.1755901,4.90087552 Z M20,3 C21.1487099,3 22.2691379,3.2157877 23.3158032,3.63077695 C23.8292063,3.83433461 24.0803856,4.41554613 23.876828,4.92894921 C23.6732703,5.44235229 23.0920588,5.69353163 22.5786557,5.48997396 C21.8672885,5.20792609 21.1119687,5.04432568 20.3344956,5.00783257 L20.0004107,4.999 L20.1017384,4.99304765 C20.5607087,4.93877302 20.9242007,4.57377105 20.9765723,4.11457964 L20.9830587,3.99794482 C20.9819937,3.48511008 20.5950781,3.06323983 20.0976208,3.00650394 L19.985,3 L20,3 Z M19.985,3 L19.8833789,3.00672773 C19.3860402,3.06449284 19,3.48716416 19,4 C19,4.51283584 19.3860402,4.93550716 19.8833789,4.99327227 L19.994,4.999 L19.9851314,5.00001751 C19.7058,5.00059439 19.4287319,5.01748838 19.1548068,5.05040488 C18.6064668,5.11629673 18.1085336,4.72519527 18.0426417,4.17685531 C17.9767499,3.62851536 18.3678513,3.13058209 18.9161913,3.06469024 C19.1506517,3.03651605 19.3867427,3.01749455 19.624084,3.00772365 L19.980986,3.00001751 L19.980986,3.00001751 L19.985,3 Z" id="icon-missing"></path>
                </g>
            </g>
        </g>
    </g>
</svg>