<?xml version="1.0" encoding="UTF-8"?>
<svg width="34px" height="27px" viewBox="0 0 34 27" version="1.1" xmlns="http://www.w3.org/2000/svg" xmlns:xlink="http://www.w3.org/1999/xlink">
    <title>FAB66C98-F7D2-49CD-9BD5-12E990992EC1</title>
    <g id="Desktop-(For-Dev)" stroke="none" stroke-width="1" fill="none" fill-rule="evenodd">
        <g id="v4-|-LAPDOnline-|-Dropdown-|-News" transform="translate(-338.000000, -276.000000)" fill="#E73F15" fill-rule="nonzero">
            <g id="Dropdown" transform="translate(0.000000, 218.000000)">
                <g id="icon-file-orange" transform="translate(335.000000, 51.000000)">
                    <path d="M26,7 C27.5976809,7 28.9036609,8.24891996 28.9949073,9.82372721 L29,10 L29,29 C29,30.6568542 30.3431458,32 32,32 C33.5976809,32 34.9036609,30.75108 34.9949073,29.1762728 L35,29 L35,8 C35,7.44771525 35.4477153,7 36,7 C36.5128358,7 36.9355072,7.38604019 36.9932723,7.88337887 L37,8 L37,29 C37,31.7614237 34.7614237,34 32,34 L7.5,34 C5.08572667,34 3.11551091,32.0987635 3.00489799,29.7118357 L3,29.5 L3,10 C3,8.40231912 4.24891996,7.09633912 5.82372721,7.00509269 L6,7 L26,7 Z M26,9 L6,9 C5.48716416,9 5.06449284,9.38604019 5.00672773,9.88337887 L5,10 L5,29.5 C5,30.8254834 6.03153594,31.9100387 7.33562431,31.9946823 L7.5,32 L28.0003566,32.000962 C27.4127666,31.2190768 27.0491097,30.2593081 27.0046195,29.2168896 L27,29 L27,10 C27,9.48716416 26.6139598,9.06449284 26.1166211,9.00672773 L26,9 Z M32,7 C32.5128358,7 32.9355072,7.38604019 32.9932723,7.88337887 L33,8 L33,28 C33,28.5522847 32.5522847,29 32,29 C31.4871642,29 31.0644928,28.6139598 31.0067277,28.1166211 L31,28 L31,8 C31,7.44771525 31.4477153,7 32,7 Z M16,23 C16.5522847,23 17,23.4477153 17,24 C17,24.5128358 16.6139598,24.9355072 16.1166211,24.9932723 L16,25 L9,25 C8.44771525,25 8,24.5522847 8,24 C8,23.4871642 8.38604019,23.0644928 8.88337887,23.0067277 L9,23 L16,23 Z M23,18 C23.5522847,18 24,18.4477153 24,19 C24,19.5128358 23.6139598,19.9355072 23.1166211,19.9932723 L23,20 L9,20 C8.44771525,20 8,19.5522847 8,19 C8,18.4871642 8.38604019,18.0644928 8.88337887,18.0067277 L9,18 L23,18 Z M23,13 C23.5522847,13 24,13.4477153 24,14 C24,14.5128358 23.6139598,14.9355072 23.1166211,14.9932723 L23,15 L9,15 C8.44771525,15 8,14.5522847 8,14 C8,13.4871642 8.38604019,13.0644928 8.88337887,13.0067277 L9,13 L23,13 Z" id="icon-newsroom"></path>
                </g>
            </g>
        </g>
    </g>
</svg>