<?xml version="1.0" encoding="UTF-8"?>
<svg width="23px" height="23px" viewBox="0 0 23 23" version="1.1" xmlns="http://www.w3.org/2000/svg" xmlns:xlink="http://www.w3.org/1999/xlink">
    <title>4F781DD1-E5A2-42B2-8F1A-E0804267EAE6</title>
    <g id="Desktop-(For-Dev)" stroke="none" stroke-width="1" fill="none" fill-rule="evenodd">
        <g id="DEV-|-LAPDOnline-|-Homepage-|-Option-1" transform="translate(-166.000000, -2902.000000)" fill="#002944">
            <g id="UI-/-Footer-+-Social-Media" transform="translate(0.000000, 2512.000000)">
                <g id="Stay-Connected" transform="translate(136.000000, 320.000000)">
                    <g id="Facebook" transform="translate(30.000000, 70.000000)">
                        <path d="M16.734,8.0076 L16.734,5.286 C16.734,5.286 15.4683912,5.07 14.258424,5.07 C11.7322608,5.07 10.0812,6.601008 10.0812,9.37272 L10.0812,9.37272 L10.0812,11.8092 L7.2732,11.8092 L7.2732,15.006 L10.0812,15.006 L10.0812,22.734048 C4.7941896,21.904392 0.75,17.3291664 0.75,11.8092 C0.75,5.701368 5.701368,0.75 11.8092,0.75 C17.917032,0.75 22.8684,5.701368 22.8684,11.8092 C22.8684,17.3291664 18.8242104,21.904392 13.5372,22.734048 L13.5372,22.734048 L13.5372,15.006 L16.11408,15.006 L16.6044,11.8092 L13.5372,11.8092 L13.5372,9.7346712 C13.5372,8.8600872 13.965636,8.0076 15.3394608,8.0076 L16.734,8.0076 Z" id="icon-fb"></path>
                    </g>
                </g>
            </g>
        </g>
    </g>
</svg>