<?xml version="1.0" encoding="UTF-8"?>
<svg width="16px" height="18px" viewBox="0 0 16 18" version="1.1" xmlns="http://www.w3.org/2000/svg" xmlns:xlink="http://www.w3.org/1999/xlink">
    <title>0EF70C62-E9BD-4AE8-8094-1A5131DCA06C</title>
    <g id="UI-Kit" stroke="none" stroke-width="1" fill="none" fill-rule="evenodd">
        <g id="Style-Tile" transform="translate(-166.000000, -627.000000)" fill="#FFFFFF" fill-rule="nonzero">
            <g id="Links-/-16pt-/-Black-/-Regular-Copy-4" transform="translate(165.000000, 624.000000)">
                <path d="M17,19.25 L17,20.75 L1,20.75 L1,19.25 L17,19.25 Z M3.82800046,11.2159991 C5.08800066,11.2159991 6.04000082,11.8879992 6.04000082,13.1119994 C6.04000082,14.2639996 5.22400068,14.9359997 3.98000048,14.9359997 L3.98000048,14.9359997 L2.8760003,14.9359997 L2.8760003,17 L1.70000011,17 L1.70000011,11.2159991 Z M7.80143465,11.2158125 C8.11371459,11.2166521 8.43942893,11.2188562 8.65200039,11.2239991 C10.7560007,11.2759991 11.6520009,12.3519992 11.6520009,14.0799995 C11.6520009,15.8799998 10.6840007,17 8.61200038,17 L8.61200038,17 L6.92400011,17 L6.92400011,11.2159991 Z M16.6240008,11.2159991 L16.6200008,12.1919992 L13.8640003,12.1919992 L13.8640003,13.6439994 L16.2520007,13.6439994 L16.2520007,14.5999996 L13.8640003,14.5999996 L13.8640003,17 L12.6880001,17 L12.6880001,11.2159991 L16.6240008,11.2159991 Z M8.65200039,12.1599992 L8.1000003,12.1599992 L8.1000003,16.0559998 L8.63600039,16.0559998 C9.62800055,16.0559998 10.4320007,15.5279998 10.4320007,14.0719995 C10.4320007,12.7199993 9.74800057,12.1599992 8.65200039,12.1599992 L8.65200039,12.1599992 Z M3.93200047,12.1119992 L2.8640003,12.1119992 L2.8640003,14.0319995 L3.94800047,14.0319995 C4.53200057,14.0319995 4.94800064,13.6079994 4.94800064,13.0519994 C4.94800064,12.4759993 4.49600056,12.1119992 3.93200047,12.1119992 L3.93200047,12.1119992 Z M14.5903262,3.25 L16.75,5.71819866 L16.75,9 L15.25,9 L15.25,6.282 L13.91,4.75 L2.75,4.75 L2.75,9 L1.25,9 L1.25,3.25 L14.5903262,3.25 Z" id="icon-pdf"></path>
            </g>
        </g>
    </g>
</svg>