<?xml version="1.0" encoding="UTF-8"?>
<svg width="40px" height="40px" viewBox="0 0 40 40" version="1.1" xmlns="http://www.w3.org/2000/svg" xmlns:xlink="http://www.w3.org/1999/xlink">
    <title>C73FEBA5-CA57-4F35-A68F-C208BABCE26E@2x</title>
    <g id="Desktop-(For-Dev)" stroke="none" stroke-width="1" fill="none" fill-rule="evenodd">
        <g id="DEV-|-Newsroom-|-Detail" transform="translate(-177.000000, -2672.000000)">
            <rect fill="#FFFFFF" x="0" y="0" width="1440" height="4246"></rect>
            <g id="CTA" transform="translate(135.000000, 2627.500000)">
                <rect id="Rectangle" fill="#EBF4F7" x="0" y="0" width="570" height="553"></rect>
                <g id="icon-lightbulb" transform="translate(42.000000, 44.500000)" fill="#E73F15">
                    <path d="M12.4209327,22.0338349 C13.6465668,23.6778661 14.3116771,25.6692563 14.3156181,27.7199122 L14.3156181,34.7363113 C14.3156181,37.6434661 16.672152,40 19.5793068,40 C22.4844911,40 24.8409746,37.6434661 24.8409746,34.7363113 L24.8409746,27.7199122 C24.8468961,25.6693068 25.5100259,23.6779166 26.73566,22.0338349 L28.8415397,19.2273258 L28.8415397,19.2293013 C30.3395032,17.2220969 31.1526517,14.7866429 31.1565927,12.2821214 L31.1565927,11.5795216 C31.1565927,7.44279171 28.9500673,3.61982177 25.3679497,1.55133053 C21.7858322,-0.517160702 17.3708615,-0.517059653 13.7886429,1.55133053 C10.2065254,3.61972072 8,7.44253909 8,11.5795216 L8,12.2821214 C8.00592152,14.7866429 8.81708941,17.2220969 10.315053,19.2293013 L12.4209327,22.0338349 Z M22.7371159,31.5785022 L22.7371159,33.6843819 L16.4214978,33.6843819 L16.4214978,31.5785022 L22.7371159,31.5785022 Z M19.5793068,37.8941203 C18.2451451,37.8901743 17.0570005,37.0474233 16.6149073,35.7902111 L22.5435043,35.7902111 L22.5415288,35.7902111 C22.0994355,37.0474233 20.9112909,37.8901288 19.5790997,37.8941203 L19.5793068,37.8941203 Z M10.1058797,11.5797186 C10.1058797,8.19495151 11.9117423,5.06856898 14.8425933,3.37547808 C17.7734443,1.68405451 21.3850684,1.68405451 24.3160204,3.37547808 C27.2468714,5.06887213 29.052734,8.19510308 29.052734,11.5797186 L29.052734,12.2823185 C29.0468124,14.3309534 28.3836826,16.3243141 27.1580485,17.9663748 L25.0521688,20.7728839 C23.5542053,22.7800883 22.7410568,25.2155423 22.7371159,27.7200638 L22.7371159,29.4746435 L20.6312362,29.4746435 L20.6312362,15.789457 C20.6312362,15.2092285 20.1595403,14.7375276 19.5793068,14.7375276 C18.9971079,14.7375276 18.525407,15.2092235 18.525407,15.789457 L18.525407,29.4746435 L16.4214978,29.4746435 L16.4214978,27.7200638 C16.4155763,25.2155423 15.6024379,22.7800883 14.1044743,20.7728839 L11.9985946,17.9663748 L12.0005702,17.9663748 C10.7749361,16.3243141 10.1098257,14.3309534 10.1058797,12.2823185 L10.1058797,11.5797186 Z" id="Fill-1"></path>
                </g>
            </g>
        </g>
    </g>
</svg>