<svg xmlns="http://www.w3.org/2000/svg" xmlns:xlink="http://www.w3.org/1999/xlink" width="33px" height="34px" viewBox="0 0 33 34" version="1.1" class="svg replaced-svg">
    <title>A861929E-8E47-4E6C-A4DA-66E22621F7B6</title>
    <g id="Desktop-(For-Dev)" stroke="none" stroke-width="1" fill="none" fill-rule="evenodd">
        <g id="DEV-|-LAPDOnline-|-Homepage-|-Option-1" transform="translate(-998.000000, -1214.000000)" fill="#0F212B">
            <g id="Quicklinks" transform="translate(134.000000, 1145.000000)">
                <g id="Link5" transform="translate(781.000000, 31.000000)">
                    <g id="Icons-/-40px-/-MostWanted" transform="translate(79.000000, 35.000000)">
                        <path d="M20.31635,3 C25.2561347,3 29.26185,7.00571525 29.26185,11.9455 C29.26185,14.2659247 28.3779585,16.3802398 26.9285581,17.9700627 C32.7454649,20.5479667 36.6315,26.3488023 36.6315,32.8918 C36.6315,33.83392 36.5476924,34.7737627 36.3841613,35.7124309 C36.3076892,36.1513807 35.952038,36.4816493 35.5188986,36.5336459 L35.399,36.5408 L5.2325,36.5408 C4.74643309,36.5408 4.33076277,36.1912852 4.24733867,35.7124309 C4.08380762,34.7737627 4,33.83392 4,32.8918 C4,26.3508603 7.88495734,20.5501606 13.7054027,17.9708131 C12.2554884,16.3820259 11.37085,14.2669048 11.37085,11.9455 C11.37085,7.00571525 15.3765653,3 20.31635,3 Z M25.2108995,19.4332256 L25.1116264,19.4981264 C23.7256262,20.3800669 22.0805588,20.891 20.31635,20.891 C18.510177,20.891 16.8288808,20.3554713 15.4226113,19.4345639 L15.5859877,19.3756103 C9.89087162,21.3698308 6,26.7603719 6,32.8918 C6,33.3869208 6.02648839,33.8820175 6.07880091,34.3775148 L6.0983,34.54 L34.5323,34.54 L34.5526991,34.3775148 C34.5875741,34.0471833 34.6109717,33.7170298 34.6226951,33.3869285 L34.6315,32.8918 C34.6315,26.8170242 30.8137281,21.4710463 25.2108995,19.4332256 Z M20.31635,5 C16.4811347,5 13.37085,8.11028475 13.37085,11.9455 C13.37085,15.7807153 16.4811347,18.891 20.31635,18.891 C24.1515653,18.891 27.26185,15.7807153 27.26185,11.9455 C27.26185,8.11028475 24.1515653,5 20.31635,5 Z" id="icon-mostwanted"></path>
                    </g>
                </g>
            </g>
        </g>
    </g>
</svg>