<svg xmlns="http://www.w3.org/2000/svg" xmlns:xlink="http://www.w3.org/1999/xlink" width="33px" height="36px" viewBox="0 0 33 36" version="1.1" class="svg replaced-svg">
    <title>851C63DB-C8A6-451C-A76F-9785D369F328</title>
    <g id="Desktop-(For-Dev)" stroke="none" stroke-width="1" fill="none" fill-rule="evenodd">
        <g id="DEV-|-LAPDOnline-|-Homepage-|-Option-1" transform="translate(-1193.000000, -1213.000000)" fill="#0F212B">
            <g id="Quicklinks" transform="translate(134.000000, 1145.000000)">
                <g id="Link6" transform="translate(976.000000, 31.000000)">
                    <g id="Icons-/-40px-/-Join-the-Team" transform="translate(79.000000, 35.000000)">
                        <path d="M19.3093469,2.40991616 C19.7088086,1.86337987 20.5245067,1.86335747 20.9239984,2.40987183 C22.8018052,4.97875677 25.5260115,6.82121515 28.625471,7.58504993 C29.1377796,7.7113039 29.4638471,8.21387012 29.3703709,8.7331603 C29.0617338,10.4477375 28.294215,11.9884401 27.2056132,13.2336883 C28.3720907,14.7417896 29.0656389,16.6335358 29.0656389,18.687 C29.0656389,20.6988349 28.3999258,22.5554423 27.2767574,24.0484582 C32.1745655,26.4409722 35.602103,31.193061 36.2704024,36.7179641 C36.3376396,37.2738214 35.9371418,37.7677977 35.3957003,37.8311907 L35.2776389,37.83805 L5.00013886,37.83805 C4.40020735,37.83805 3.93529775,37.3134774 4.00738401,36.7178925 C4.67615349,31.1924425 8.10405909,26.4404152 13.0003361,24.0467307 C11.8775142,22.5544955 11.2121389,20.6982837 11.2121389,18.687 C11.2121389,16.6327325 11.906258,14.7402358 13.0726944,13.2314304 C11.9824326,11.9844744 11.2146723,10.4407036 10.9077752,8.72286884 C10.8153037,8.20526575 11.1394652,7.70446158 11.6495511,7.57688304 C14.7314941,6.80605256 17.4402246,4.96721523 19.3093469,2.40991616 Z M14.4611381,25.5759794 L14.194617,25.6939039 C10.1411602,27.5528024 7.17723609,31.2357318 6.21951754,35.6197117 L6.17413886,35.83785 L34.1031389,35.83785 L34.0588142,35.6218315 C33.0810027,31.141426 30.0072733,27.3927292 25.8156266,25.5753886 C24.273121,26.8494754 22.2949104,27.6145 20.1381389,27.6145 C17.9819092,27.6145 16.0040535,26.8494254 14.4611381,25.5759794 Z M28.6845389,31.4588 C29.2368236,31.4588 29.6845389,31.9065153 29.6845389,32.4588 C29.6845389,32.9716358 29.2984987,33.3943072 28.80116,33.4520723 L28.6845389,33.4588 L24.6690389,33.4588 C24.1167541,33.4588 23.6690389,33.0110847 23.6690389,32.4588 C23.6690389,31.9459642 24.055079,31.5232928 24.5524177,31.4655277 L24.6690389,31.4588 L28.6845389,31.4588 Z M14.5495071,14.5959573 L14.5225257,14.6320086 C13.6981146,15.7720506 13.2121389,17.1729138 13.2121389,18.687 C13.2121389,22.5120598 16.3137681,25.6145 20.1381389,25.6145 C23.9638068,25.6145 27.0656389,22.5122626 27.0656389,18.687 C27.0656389,17.1570751 26.5694626,15.7428069 25.729248,14.5964114 C24.1612252,15.761242 22.2223809,16.444 20.1406889,16.444 C18.0579214,16.444 16.1182579,15.7609681 14.5495071,14.5959573 Z M20.1381389,11.7595 C18.5743602,11.7595 17.1314222,12.2782212 15.9719623,13.1529628 C17.0988234,13.926096 18.4470661,14.3915789 19.8911313,14.4398352 L19.8911313,14.4398352 L20.1406889,14.444 C21.6776152,14.444 23.1157382,13.9707471 24.3068335,13.1551105 C23.1468677,12.2785951 21.7030627,11.7595 20.1381389,11.7595 Z M20.1161389,4.60185 L19.9479497,4.79535866 C18.1419806,6.81228789 15.836682,8.33389068 13.2566971,9.19097378 L13.2566971,9.19097378 L13.0891389,9.24385 L13.1122181,9.3208871 C13.4057559,10.2379335 13.8721823,11.0729184 14.4713345,11.7903588 C16.0134525,10.5209436 17.9870319,9.7595 20.1381389,9.7595 C22.2911838,9.7595 24.2662843,10.5218832 25.8082611,11.7913399 C26.4052436,11.0759484 26.8713605,10.2427422 27.1654106,9.32761591 L27.1654106,9.32761591 L27.1861389,9.25585 L27.0186252,9.20295994 C24.4238871,8.34992568 22.1053942,6.82561309 20.2902493,4.80059864 L20.2902493,4.80059864 L20.1161389,4.60185 Z" id="icon-jointheteam"></path>
                    </g>
                </g>
            </g>
        </g>
    </g>
</svg>