<svg xmlns="http://www.w3.org/2000/svg" xmlns:xlink="http://www.w3.org/1999/xlink" width="30px" height="39px" viewBox="0 0 30 39" version="1.1" class="svg replaced-svg">
    <title>4CF1EA07-120E-4457-AC4E-E226E26839DA</title>
    <g id="Desktop-(For-Dev)" stroke="none" stroke-width="1" fill="none" fill-rule="evenodd">
        <g id="DEV-|-LAPDOnline-|-Homepage-|-Option-1" transform="translate(-804.000000, -1212.000000)" fill="#0F212B">
            <g id="Quicklinks" transform="translate(134.000000, 1145.000000)">
                <g id="Link4" transform="translate(587.000000, 31.000000)">
                    <g id="Icons-/-40px-/-reference" transform="translate(78.000000, 35.000000)">
                        <path fill="#0F212B" d="M32.39754,1 C33.8171211,1 34.97119,2.14554031 34.97119,3.56202076 L34.97119,3.56202076 L34.97119,30.4379792 C34.97119,31.8547967 33.8172327,33 32.39754,33 L32.39754,33 L10.8230268,33.0010057 C10.6512818,33.1399757 10.4325867,33.223215 10.19445,33.223215 C8.43025375,33.223215 7,34.6536807 7,36.418115 L7,36.418115 L6.99991,37.23218 L33.9711,37.232735 C34.4839358,37.232735 34.9066072,37.6187752 34.9643723,38.1161139 L34.9711,38.232735 C34.9711,38.7455708 34.5850598,39.1682422 34.0877211,39.2260073 L33.9711,39.232735 L6,39.232735 C5.48716416,39.232735 5.06449284,38.8466948 5.00672773,38.3493561 L5,38.232735 L5,6.194765 C5,3.32588025 7.32556525,1.000315 10.19445,1.000315 L10.19445,1.000315 Z M33.99991,34.00018 C34.5521947,34.00018 34.99991,34.4478953 34.99991,35.00018 C34.99991,35.5130158 34.6138698,35.9356872 34.1165311,35.9934523 L33.99991,36.00018 L10.99991,36.00018 C10.4476253,36.00018 9.99991,35.5524647 9.99991,35.00018 C9.99991,34.4873442 10.3859502,34.0646728 10.8832889,34.0069077 L10.99991,34.00018 L33.99991,34.00018 Z M9.19391,3.16118 L9.15197902,3.17426456 C7.89957346,3.60639989 7,4.79548049 7,6.194765 L7,6.194765 L6.99991,32.32218 L7.06094106,32.2745495 C7.65977004,31.820902 8.35998579,31.4941 9.12159472,31.3341502 L9.12159472,31.3341502 L9.19391,31.31918 L9.19391,3.16118 Z M11.194,2.999 L11.194,30.999 L32.39754,31 C32.6842063,31 32.9195298,30.7949109 32.9637278,30.5287601 L32.97119,30.4379792 L32.97119,3.56202076 C32.97119,3.25344425 32.7158589,3 32.39754,3 L32.39754,3 L30.512,3 L30.51295,16.69313 C30.51295,17.607133 29.4034118,18.0239546 28.7976851,17.3928819 L28.721667,17.3045801 L26.48491,14.41018 L24.2801293,17.2998321 C23.723846,18.0287003 22.5853043,17.6820671 22.4913916,16.8098349 L22.4852,16.69313 L22.485,3 L11.194,2.999 Z M24.485,3 L24.48491,13.73418 L25.6854707,12.1619779 C26.0576113,11.6743821 26.7668073,11.6398272 27.1864255,12.0601887 L27.271683,12.1572299 L28.51291,13.76418 L28.512,3 L24.485,3 Z" id="icon-referencelibrary"></path>
                    </g>
                </g>
            </g>
        </g>
    </g>
</svg>